<svg xmlns="http://www.w3.org/2000/svg" xmlns:xlink="http://www.w3.org/1999/xlink" viewBox="0 0 1080 1080"><defs><style>.cls-1{isolation:isolate;}.cls-2{fill:#fff;}.cls-3,.cls-7{opacity:0.6;}.cls-4{fill:#adac9d;}.cls-11,.cls-12,.cls-13,.cls-14,.cls-15,.cls-16,.cls-17,.cls-18,.cls-19,.cls-20,.cls-21,.cls-22,.cls-23,.cls-26,.cls-4,.cls-5,.cls-7{mix-blend-mode:multiply;}.cls-5,.cls-9{fill:#474747;}.cls-6,.cls-7{fill:#e46178;}.cls-8{fill:#726459;}.cls-10{fill:#5e5249;}.cls-11,.cls-13,.cls-14,.cls-16,.cls-17,.cls-18,.cls-19,.cls-21,.cls-22,.cls-23{opacity:0.4;}.cls-11{fill:url(#linear-gradient);}.cls-12{fill:url(#linear-gradient-2);}.cls-13{fill:url(#linear-gradient-3);}.cls-14{fill:url(#linear-gradient-4);}.cls-15{fill:url(#linear-gradient-5);}.cls-16{fill:url(#linear-gradient-6);}.cls-17{fill:url(#linear-gradient-7);}.cls-18{fill:url(#linear-gradient-8);}.cls-19{fill:url(#linear-gradient-9);}.cls-20{fill:url(#linear-gradient-10);}.cls-21{fill:url(#linear-gradient-11);}.cls-22{fill:url(#linear-gradient-12);}.cls-23{fill:url(#linear-gradient-13);}.cls-24{fill:#e7e4cf;}.cls-25{fill:#f2b55a;}.cls-26{fill:#bcbcbb;}</style><linearGradient id="linear-gradient" x1="552.55" y1="501.01" x2="555.6" y2="391.24" gradientUnits="userSpaceOnUse"><stop offset="0" stop-color="#46b0ff"/><stop offset="1" stop-color="#83d9ff"/></linearGradient><linearGradient id="linear-gradient-2" x1="550.51" y1="501.07" x2="553.56" y2="391.22" xlink:href="#linear-gradient"/><linearGradient id="linear-gradient-3" x1="571.74" y1="501.56" x2="574.79" y2="391.81" xlink:href="#linear-gradient"/><linearGradient id="linear-gradient-4" x1="619" y1="502.93" x2="622.05" y2="393.12" xlink:href="#linear-gradient"/><linearGradient id="linear-gradient-5" x1="618.82" y1="504.68" x2="621.9" y2="393.75" xlink:href="#linear-gradient"/><linearGradient id="linear-gradient-6" x1="597.75" y1="502.31" x2="600.8" y2="392.49" xlink:href="#linear-gradient"/><linearGradient id="linear-gradient-7" x1="619.69" y1="502.78" x2="622.74" y2="393" xlink:href="#linear-gradient"/><linearGradient id="linear-gradient-8" x1="439.42" y1="498.55" x2="442.47" y2="388.76" xlink:href="#linear-gradient"/><linearGradient id="linear-gradient-9" x1="428.81" y1="498.28" x2="431.86" y2="388.48" xlink:href="#linear-gradient"/><linearGradient id="linear-gradient-10" x1="389.18" y1="497.18" x2="392.23" y2="387.41" xlink:href="#linear-gradient"/><linearGradient id="linear-gradient-11" x1="448.48" y1="498.89" x2="451.53" y2="389.07" xlink:href="#linear-gradient"/><linearGradient id="linear-gradient-12" x1="480.99" y1="499.75" x2="484.04" y2="389.96" xlink:href="#linear-gradient"/><linearGradient id="linear-gradient-13" x1="460.36" y1="499.11" x2="463.41" y2="389.39" xlink:href="#linear-gradient"/></defs><g class="cls-1"><g id="Laag_1" data-name="Laag 1"><path class="cls-2" d="M275.2,748.77a25.65,25.65,0,0,1-7.44,18.2q-7.44,7.85-21.11,11.08A128.94,128.94,0,0,1,222,780.84q-14.55.43-30.81.44-5.91,0-12.74-.12t-14.2-.28q0-10.27.09-24.1t.08-34q0-8.89-.08-28.92t-.09-21.31q1.78,0,9.06-.28t17.88-.29q19.49,0,30.45.25a100.43,100.43,0,0,1,21.15,2.67q11.16,2.67,17.79,8.89a20.18,20.18,0,0,1,6.63,15.29,25.91,25.91,0,0,1-3.43,12.9q-3.45,6.11-11.77,9.91v.4a31.93,31.93,0,0,1,10.92,4.21,23.65,23.65,0,0,1,9.34,9.62A27.48,27.48,0,0,1,275.2,748.77Zm-45.37-7.36a9.17,9.17,0,0,0-1.42-5.26,10.39,10.39,0,0,0-3.52-3.31,13.12,13.12,0,0,0-3.43-1.34,17.89,17.89,0,0,0-4.41-.52c-1,0-2.32,0-3.88.16l-3.56-11.08a16.78,16.78,0,0,0,4.61-1,13.72,13.72,0,0,0,3.72-1.78,9.88,9.88,0,0,0,4-9,9.8,9.8,0,0,0-1.21-4.41,8.29,8.29,0,0,0-3.4-3.6,13,13,0,0,0-3.92-1.45,21.52,21.52,0,0,0-4.17-.41c-1.51.06-2.53.08-3.07.08q0,3.48-.08,9.06t-.08,15.53q.07,27.74.08,29c.38,0,1.15,0,2.31.13s2.89.12,5.21.12A45.83,45.83,0,0,0,219,752a16,16,0,0,0,5-1.25,9.55,9.55,0,0,0,4.25-3.76A10.36,10.36,0,0,0,229.83,741.41Z"/><path class="cls-2" d="M402.83,771.7l-44.51,11.93-2.94-11.24q-1.67-6.32-2.55-9.63H323c-.32,1.29-1.11,4.41-2.37,9.34s-2.28,8.78-3,11.53L274.47,771.7q2.26-5.58,16.18-40.38t23.29-58.66h49.74q10.85,27.65,24.19,61.32T402.83,771.7ZM346,737.37q-1.68-6.15-3.92-14.87T338,707l-.48-.06q-1.71,6.55-4.18,16.23t-3.7,14.21l0,.08H346Z"/><path class="cls-2" d="M519.13,748.77a25.65,25.65,0,0,1-7.44,18.2q-7.44,7.85-21.11,11.08a128.92,128.92,0,0,1-24.66,2.79q-14.57.43-30.82.44-5.91,0-12.74-.12t-14.19-.28q0-10.27.08-24.1t.08-34q0-8.89-.08-28.92t-.08-21.31q1.77,0,9.06-.28T435.1,672q19.48,0,30.45.25a100.35,100.35,0,0,1,21.15,2.67q11.16,2.67,17.79,8.89a20.15,20.15,0,0,1,6.64,15.29,25.92,25.92,0,0,1-3.44,12.9q-3.44,6.11-11.77,9.91v.4a31.93,31.93,0,0,1,10.92,4.21,23.65,23.65,0,0,1,9.34,9.62A27.48,27.48,0,0,1,519.13,748.77Zm-45.37-7.36a9.17,9.17,0,0,0-1.42-5.26,10.46,10.46,0,0,0-3.51-3.31,13.34,13.34,0,0,0-3.44-1.34A17.89,17.89,0,0,0,461,731c-1,0-2.32,0-3.88.16l-3.56-11.08a16.78,16.78,0,0,0,4.61-1,13.42,13.42,0,0,0,3.72-1.78,11.32,11.32,0,0,0,2.95-3.4,11.5,11.5,0,0,0,1.1-5.58,9.82,9.82,0,0,0-1.22-4.41,8.29,8.29,0,0,0-3.4-3.6,13,13,0,0,0-3.92-1.45,21.49,21.49,0,0,0-4.16-.41c-1.51.06-2.54.08-3.08.08,0,2.32,0,5.34-.08,9.06s-.08,8.9-.08,15.53q.07,27.74.08,29c.38,0,1.15,0,2.31.13s2.9.12,5.21.12A45.69,45.69,0,0,0,463,752a16.08,16.08,0,0,0,5-1.25,9.52,9.52,0,0,0,4.24-3.76A10.36,10.36,0,0,0,473.76,741.41Z"/><path class="cls-2" d="M652.1,726.77a58,58,0,0,1-4.81,23.62,55.16,55.16,0,0,1-15,19.65A54.57,54.57,0,0,1,613,780.51a78.28,78.28,0,0,1-24,3.6,80,80,0,0,1-23.78-3.43,56,56,0,0,1-19.49-10.48,58.08,58.08,0,0,1-15.53-66.4A54.83,54.83,0,0,1,543.88,685a57.38,57.38,0,0,1,19.66-11.57,75.28,75.28,0,0,1,25.15-4,79.85,79.85,0,0,1,24.38,3.56,56.68,56.68,0,0,1,20.1,11.24,52.87,52.87,0,0,1,14.32,19.13A58.45,58.45,0,0,1,652.1,726.77Zm-45.54.28a35,35,0,0,0-1.65-10.41,17.55,17.55,0,0,0-5.46-8.47,15.93,15.93,0,0,0-10.68-3.8,15,15,0,0,0-5.9,1.09,17.57,17.57,0,0,0-5.1,3.44,20.2,20.2,0,0,0-4.85,8,30.15,30.15,0,0,0-1.7,9.81,32,32,0,0,0,1.62,10.09A19.34,19.34,0,0,0,578,745a14.78,14.78,0,0,0,4.86,3.12,16.7,16.7,0,0,0,6.22,1.09,15.33,15.33,0,0,0,5.79-1.09,16.78,16.78,0,0,0,4.89-3,18.67,18.67,0,0,0,5.14-8.3A32,32,0,0,0,606.56,727.05Z"/><path class="cls-2" d="M786.28,726.77a58,58,0,0,1-4.81,23.62,55.89,55.89,0,0,1-34.26,30.12,78.28,78.28,0,0,1-24,3.6,80,80,0,0,1-23.78-3.43,56,56,0,0,1-19.49-10.48,58.08,58.08,0,0,1-15.53-66.4A54.83,54.83,0,0,1,678.06,685a57.43,57.43,0,0,1,19.65-11.57,75.39,75.39,0,0,1,25.16-4,79.85,79.85,0,0,1,24.38,3.56,56.68,56.68,0,0,1,20.1,11.24,53,53,0,0,1,14.32,19.13A58.45,58.45,0,0,1,786.28,726.77Zm-45.54.28a34.67,34.67,0,0,0-1.66-10.41,17.46,17.46,0,0,0-5.45-8.47,16.31,16.31,0,0,0-4.53-2.71,16.11,16.11,0,0,0-6.15-1.09,15.08,15.08,0,0,0-5.91,1.09A17.67,17.67,0,0,0,712,708.9a20.2,20.2,0,0,0-4.85,8,29.88,29.88,0,0,0-1.7,9.81A32,32,0,0,0,707,736.82a19.25,19.25,0,0,0,5.17,8.22,14.84,14.84,0,0,0,4.85,3.12,16.75,16.75,0,0,0,6.23,1.09,15.33,15.33,0,0,0,5.79-1.09,16.78,16.78,0,0,0,4.89-3,18.57,18.57,0,0,0,5.13-8.3A31.75,31.75,0,0,0,740.74,727.05Z"/><path class="cls-2" d="M915.77,672.58q0,15.85-.09,27.22t-.08,20.74q0,12.13.08,28t.09,23.82l-30.66,11.24q-15.29-19.5-27.66-33.69t-16.9-19.13l-.65.33q0,11.73.08,27.33t.08,22.41H798.9q0-6.63.08-22.24t.08-33.89q0-7.68-.08-18.73t-.17-24.22l32.36-11.89q6.47,7.61,16.37,18.81t26.73,29.56l.49-.24q0-9.56-.08-21.52t-.08-23.94Z"/><path class="cls-2" d="M306.18,844.5a17.11,17.11,0,0,1-5,12.13q-5,5.24-14.08,7.39a85.88,85.88,0,0,1-16.44,1.86q-9.7.3-20.54.3-3.94,0-8.5-.08l-9.46-.19q0-6.85.05-16.07t.06-22.65q0-5.93-.06-19.27t-.05-14.21q1.19,0,6-.19t11.92-.19q13,0,20.3.16a67.17,67.17,0,0,1,14.1,1.78,25.78,25.78,0,0,1,11.86,5.93,13.44,13.44,0,0,1,4.42,10.19,17.3,17.3,0,0,1-2.29,8.61q-2.3,4.07-7.85,6.6v.27a22.12,22.12,0,0,1,4.07,1.19,21.87,21.87,0,0,1,3.21,1.61,15.77,15.77,0,0,1,6.23,6.42A18.36,18.36,0,0,1,306.18,844.5Zm-30.25-4.91a6.19,6.19,0,0,0-.94-3.5,7.18,7.18,0,0,0-2.35-2.21,8.62,8.62,0,0,0-2.29-.89,12.08,12.08,0,0,0-2.94-.35c-.68,0-1.55,0-2.59.11l-2.37-7.39a10.92,10.92,0,0,0,3.07-.65,8.83,8.83,0,0,0,2.48-1.18,6.6,6.6,0,0,0,2.7-6,6.54,6.54,0,0,0-.81-2.94,5.53,5.53,0,0,0-2.26-2.4,8.91,8.91,0,0,0-2.62-1,14.39,14.39,0,0,0-2.78-.27c-1,0-1.69.06-2.05.06,0,1.54,0,3.56-.05,6s-.05,5.93-.05,10.35q0,18.5.05,19.3c.25,0,.76,0,1.54.08s1.93.08,3.48.08a31.78,31.78,0,0,0,3.58-.24,10.59,10.59,0,0,0,3.32-.84,6.34,6.34,0,0,0,2.83-2.5A6.91,6.91,0,0,0,275.93,839.59Z"/><path class="cls-2" d="M392.85,860.19l-29.33,7.55q-3.18-5.07-7.24-11.78t-12-20.52l.48-1.78a19,19,0,0,0,3.75-1.24,10.08,10.08,0,0,0,3.69-2.53,10.71,10.71,0,0,0,2.46-3.78,13,13,0,0,0,.46-3.61,9.14,9.14,0,0,0-1.06-4.26,6.86,6.86,0,0,0-2.88-3,12.57,12.57,0,0,0-3.05-1.1,16,16,0,0,0-3.26-.3h-1.51q0,1.35-.05,6.61t-.06,13.34q0,10.68.06,18.17t.05,14h-29.6q0-5.67.05-12.54t.06-26.18q0-6.41-.06-15.44t-.05-18q3,0,8-.08c3.33-.06,6.48-.08,9.47-.08q12.45,0,20.3.37a65.43,65.43,0,0,1,14.42,2.22q10.35,2.75,14.69,8.14A18,18,0,0,1,385,815.82a21.2,21.2,0,0,1-9.05,17.68v.38q3.23,5,6.37,9.89Z"/><path class="cls-2" d="M472.84,859.79l-29.67,8c-.57-2.19-1.23-4.69-2-7.49s-1.3-5-1.7-6.42H419.64c-.22.86-.74,2.94-1.58,6.23s-1.52,5.85-2,7.68l-28.76-8q1.51-3.72,10.79-26.92t15.53-39.11h33.16q7.22,18.43,16.12,40.88T472.84,859.79ZM435,836.9q-1.11-4.1-2.61-9.91c-1-3.88-1.89-7.33-2.7-10.34l-.32,0q-1.14,4.36-2.79,10.82c-1.1,4.3-1.92,7.45-2.46,9.47l0,.05H435Z"/><path class="cls-2" d="M554.32,793.71q0,10.56-.06,18.14t0,13.83q0,8.1,0,18.69t.06,15.88l-20.44,7.49q-10.18-13-18.44-22.46t-11.27-12.75l-.43.22q0,7.82.05,18.22t.06,14.94H476.4q0-4.42.06-14.83t.05-22.59q0-5.13-.05-12.49t-.11-16.14l21.57-7.93q4.31,5.07,10.91,12.54t17.82,19.7L527,824q0-6.36-.06-14.34t0-16Z"/><path class="cls-2" d="M643.61,830.27a29.73,29.73,0,0,1-4.67,16.63,36,36,0,0,1-12.1,11.51,53.84,53.84,0,0,1-14.72,5.85,85.16,85.16,0,0,1-20,2q-6.68,0-15.88-.18T566,865.91q0-.87.06-10.14t.05-28.58q0-6.41-.05-15.44t-.06-18l10.14-.08q8.83-.09,14.29-.08a101.76,101.76,0,0,1,21.75,2,49.52,49.52,0,0,1,15.94,6.33A33.16,33.16,0,0,1,639.78,814,33.73,33.73,0,0,1,643.61,830.27Zm-30.36-1.41a12.55,12.55,0,0,0-1.56-6.09,11.34,11.34,0,0,0-4.69-4.53,17,17,0,0,0-5.13-1.75A34.61,34.61,0,0,0,596,816h-.76v27.18h.49a27.55,27.55,0,0,0,5.36-.68,19.53,19.53,0,0,0,5-1.59c3-1.61,4.92-3.43,5.82-5.44A16.12,16.12,0,0,0,613.25,828.86Z"/><path class="cls-2" d="M681.67,865.91h-29.6q0-6.36,0-15.53t.06-23.19q0-6.41-.06-15.44t0-18h29.6q0,7,0,15.82t0,17.66q0,13.81,0,21.3T681.67,865.91Z"/><path class="cls-2" d="M771.23,793.71q0,10.56-.05,18.14t0,13.83q0,8.1,0,18.69t.05,15.88l-20.43,7.49q-10.2-13-18.44-22.46t-11.27-12.75l-.43.22q0,7.82.05,18.22t.06,14.94H693.32q0-4.42,0-14.83t.06-22.59q0-5.13-.06-12.49t-.1-16.14l21.56-7.93q4.32,5.07,10.92,12.54t17.82,19.7l.33-.16q0-6.36-.06-14.34t-.05-16Z"/><path class="cls-2" d="M851.2,828q0,4.37,0,9.22c0,3.23,0,6.2,0,8.89q0,4.7,0,7.77t0,12a57.38,57.38,0,0,1-7.18.59q-6.25.33-9.75.33a91.88,91.88,0,0,1-20.9-2.24,63,63,0,0,1-19.11-8.22,34,34,0,0,1-10.84-11.06,30.8,30.8,0,0,1-.35-29.87,34.88,34.88,0,0,1,11.13-11.48,59.32,59.32,0,0,1,18.55-8A102.48,102.48,0,0,1,838.42,793c.93,0,1.74,0,2.42,0l2.21,0,3.72,24.43H841.6q-2.05,0-7.42.27A53.61,53.61,0,0,0,824,819.21a23.33,23.33,0,0,0-10.46,5,10.68,10.68,0,0,0-3.83,8.12,12.32,12.32,0,0,0,1.78,6.66,14,14,0,0,0,4.32,4.45,18.37,18.37,0,0,0,3,1.56,20.43,20.43,0,0,0,4.18,1.29v-5.76q0-4.59-.11-12.62Z"/><path class="cls-3" d="M367.68,454.57c-9.39-9.72-18.51-17.41-25.5-29.44-6.2-10.74-10.66-22.67-14.51-34.41-.16-.51-1,.11-.81.53,6.28,22.77,16.53,54.6,39.39,65.21C367,456.79,368.38,455.31,367.68,454.57Z"/><path class="cls-3" d="M373.19,475.81c-.64-2.1-2.43-3.41-3.74-5-1.94-2.28-3.86-4.54-5.88-6.75-3.75-4.1-8.28-7.47-13.53-8.94-.37-.09-.87.53-.47.74,5,2.26,8.33,6.31,11.67,10.62,2.62,3.37,5.68,10.2,9.72,11.63A1.94,1.94,0,0,0,373.19,475.81Z"/><path class="cls-3" d="M719.36,371.43c-8,9.21-15.11,18.78-19.51,30.34-5,13.35-10,28.09-18,39.86-.65,1.05.47,1.64,1.28.84,7.6-8,12.17-20,16.54-30.18,2.72-6.46,4.65-13.25,7.59-19.67,3.41-7.37,8.11-14.15,12.88-20.71C720.53,371.32,719.81,371,719.36,371.43Z"/><path class="cls-3" d="M708.67,434.59c-3.57,7.25-10.44,12.35-16.23,17.62-7.92,7.2-16.37,13.4-24.8,19.82-1,.84-1.26,3.26.45,2.31,9.8-4.84,18.72-12.2,26.13-20.24,5.57-6,12.32-11.47,15.41-19.41C710,433.85,708.92,434.12,708.67,434.59Z"/><path class="cls-3" d="M704.25,466.88c-10.79,1.89-22.42,7.46-30,15.77-1.21,1.32-.4,3.06,1.33,2,4.36-2.73,8.31-6.37,12.72-9.2a71.88,71.88,0,0,1,15.86-7.58C704.56,467.72,704.85,466.77,704.25,466.88Z"/><path class="cls-3" d="M705.36,485A59.35,59.35,0,0,0,682,489.59c-.54.26-1,1.58-.1,1.42,7.45-1.63,15.68-.05,22.83-2.85C705.72,487.76,707.3,485,705.36,485Z"/><path class="cls-3" d="M305.93,320.79c-.41,0-1.13.83-.62,1,11.16,3.11,16.62,17.93,20.95,27.65.77,1.75,3.24-.47,3.08-1.84C328.39,336.35,317.44,321.36,305.93,320.79Z"/><path class="cls-3" d="M334.46,288.07c-2.31-3.68-5.26-7.26-9.22-9.09-.6-.27-1.72.94-1.11,1.42,3.64,2.68,5.66,7,7.39,11.15,1.33,3.15,2.13,9.88,5.33,11.46,1.06.42,2.08-.84,2.33-1.75C340.49,297,336.6,291.49,334.46,288.07Z"/><path class="cls-3" d="M744.8,261.63c-9.27,1.31-16.06,8.62-22.14,15.5-7,7.95-15.42,18.88-16.28,30-.2,2.19,2.33,1.56,3.14.2,4.83-8.1,7.86-17,13.28-24.87,5.32-7.68,12.52-17.63,21.85-20C745,262.41,745.47,261.51,744.8,261.63Z"/><path d="M736.28,565.23h.58a2.65,2.65,0,0,0,2.58-2.59c-.94-15.28-17.62-26.3-32.41-31.8a39.25,39.25,0,0,1,6.86.87c5.41,1.4,9.18,5.07,13.26,8.55,1.24,1,3.41-1,2.81-2.28-7.83-17.19-27-21.26-44.57-22.14,7.09-1.3,14.2-1.75,21.49,0,1,.25,3.43-1.63,2.13-2.53-14.48-10-29.49-7.94-45.16-3.37,5.9-4.52,13.79-6.36,20-10.22.69-.4,1.93-2.44.59-2.89-13.8-4.56-28.64,3.23-42,9A36.61,36.61,0,0,0,648,500.6c3.13-3.53,5.39-7.6,7.83-11.58a17.48,17.48,0,0,0,1.68-2.72c.6-1.25-1.13-1.25-1.68-.35-5.37,9.43-31.77,24.23-39.92,13.6.7-.6,1.11-1.63.67-2.28-1.06-1.29-1.94-2.58-2.94-3.78a2,2,0,0,1-.06-.59c-.05-.31-.31-.31-.55-.19-3.22-3.87-6.64-6.76-12.35-8.35-9.29-2.69-19.65-2-29.1-2-21.4-.11-42.74,2-63.92,4.57-10.49,1.29-20.9,2.47-31.28,4.32-11.18,2-22.1,5.21-33.26,7.2-8.39,1.48-18.93,3-29,2.52a26.2,26.2,0,0,0,5.4-1.29c-1,0-2,0-3.07-.15-8.29,1.34-17.37-1.08-25.42-5a9.21,9.21,0,0,1-1.49-1c-.14-.1-.33,0-.44.06A65.63,65.63,0,0,1,383,490c-3.42-1.49-7.2-2.78-10.08-5.15,0,0,0,0,0,.08.54,6,5.2,9.59,9.14,14.05-10-1.43-20.41-1.08-28.85,4-.61.33-1.5,1.73-.11,1.76,5,.41,10,.31,14.89,1-4.4.75-8.84,1.05-13.1,2.2-5.31,1.37-9.93,3.77-14.59,6.25-7.55,4.12-15.1,9-19.12,15.89-.45.7.3,1.13,1.14.89,4.72-1.39,9.05-3.39,13.5-5-10.56,6.25-18.05,17.33-21.14,26.81-.25.89,1,.89,1.69.6,5.91-3.07,10.52-7.45,15.68-11.23a56.87,56.87,0,0,0-15.28,28.59c-.31,1.64,2,.91,2.73.2a149.82,149.82,0,0,1,12.71-12.3c-12.55,13.2-18.87,31.57-14.89,47.25.28,1.19,1.93.79,2.82.16,5.06-4,8.65-9,11.91-14-2.38,8.63-2.77,18.32,2.79,24.67.89,1,2.83-.49,3.12-1.08,2.29-4,3.57-8.3,5.11-12.52-.09,15.7,2.19,31.08,14.51,43.84,1.23,1.23,3.37-.94,3.42-1.89.24-7.59-1.4-15-.65-22.58,6.07,14.18,11.42,28.2,24.87,39.12,1.2.94,3.12-.71,3.07-1.7-.47-4.56-3-8.22-4.91-12.5a50.51,50.51,0,0,1-3.91-13.25,86.32,86.32,0,0,0,20.34,26c12.23,10.33,28,17.48,42.16,25.73,1.19.69,3.42-1.1,2.26-1.91-1.32-.82-2.7-1.68-4-2.47a72.92,72.92,0,0,1-20.45-33.06c12.91,24.82,35.44,46.46,60.46,58.18.81.45,2.39-1,1.85-1.88-3.93-6.51-9.49-11.63-14.56-17.33a71.1,71.1,0,0,1-8.14-12.21,202,202,0,0,0,42.61,38.32h0a1.37,1.37,0,0,0,.25.15c1.08.75,2.82-1.4,2-2.43-6.25-7.9-12.64-15.64-18.26-24.08a200.43,200.43,0,0,1,21.55,26.16c8.93,12.76,19.61,27.8,23,43.29.45,1.73,2.53.5,3-.54,2.58-6.47,1.5-13.56-.18-20.41a3.85,3.85,0,0,0,.38-.65c3.82-13.35,1.93-27.7,5.76-40.9-.39,11.92-1.29,23.82-1.29,35.74,0,1.89,2.89.3,3-.94a79.18,79.18,0,0,1,18.86-42.44c-4.77,14.09-9.39,28.29-9.63,43.38-.09,2,2.73.09,3-.94,4.16-15.83,11.23-30.79,22.15-42.69a60.93,60.93,0,0,0-8.3,23.38c-.25,1.78,1.94,1.19,2.53.2,7.8-12.87,17-29,31.58-35.05-7.06,8.69-13.46,17.77-17.28,28.35-.79,2.13,1.69,1.84,2.58.59,10.76-14.34,24.47-24.48,40.31-32.43,3.32-1.63,6.65-3.16,9.93-4.75a63,63,0,0,1-14.69,16.09c-2.24,1.28-4.47,2.62-6.7,4.07-1.44.89-1.55,3.87.63,2.78a1.07,1.07,0,0,0,.4-.26h.1a36.22,36.22,0,0,0,4.38-2.62c15.83-9.34,32.95-17.12,46.5-29.64,4.27-4,8.79-8.09,12.85-12.46-2.71,4.16-5.79,8-7,13.2-.32,1.1.78,1.54,1.62,1.1,20.75-9.93,29.83-32.42,33.11-54.21-.24,10.22-5.91,19.95-5.81,30.58a1,1,0,0,0,1.3.89c10.23-3,16.17-16.28,19.3-25.52.51-1.44.95-2.88,1.35-4.37a29.45,29.45,0,0,0,2.23-9.78,60.93,60.93,0,0,0,.61-14.93c2,4.51,3.87,9,5.88,13.59.7,1.5,2.6-.15,3-.94C741,584.64,740.39,574.27,736.28,565.23Z"/><path class="cls-2" d="M734.55,590c-3.91-8.62-7.48-17.34-12.68-25.15a66.76,66.76,0,0,1,1.63,27.28v.11a74.1,74.1,0,0,1-9.69,30.85c-1.15,2-8.93,12-7.88,4.75.58-4.26,2.18-8.52,3.41-12.68,2.28-7.87,2.92-15.29-.09-23a1.14,1.14,0,0,0-.55-.59c-1.64,11-3.92,21.85-8.32,32-4.25,12.78-11.4,24.27-23.13,31,2-5.4,6-9.66,8.71-14.71,1.09-2.19,2.08-4.46,3-6.74.14-.19.26-.39.39-.59-6.09,9.76-15,18.26-24.52,23.19-1.63,1.28-3.16,2.56-4.7,3.75-9,7-18.93,12.43-28.83,17.93a83.9,83.9,0,0,0,9.08-12.68c3.37-1.69,6.69-3.47,9.88-5.34a189,189,0,0,1-19.4,6.58c-4.1,2-8.18,4-12,6.1a101.52,101.52,0,0,0-28,22.76c4.27-8.16,10-15.44,15.9-22.58a1.76,1.76,0,0,0,.34-1,14.07,14.07,0,0,0-1.84.39,102,102,0,0,0-10.43,3.71c-9.81,6.6-16.93,17.1-23.17,27.2,2.66-10,8.46-20.6,15.68-26.85a1.81,1.81,0,0,0,.56-.74c-.76.36-1.5.74-2.18,1.09a88.45,88.45,0,0,0-7.78,4.41c-10.45,10-17.83,22.28-23,35.76,2-11.68,6-23,9.86-34.37a96.29,96.29,0,0,0-10.2,7.58A85.87,85.87,0,0,0,542,713.64c.45-9.6,1.1-19.21,1.15-28.86a1,1,0,0,0-.15-.65,51.71,51.71,0,0,0-6.84,11.49c-2.73,10.3-2.38,21.2-3.93,31.78-.57-2.12-1.22-4.24-2-6.32-1.22-7.94-1.69-15.9-3.16-23.68-.06,3.12-.06,6.24,0,9.41.1,9.17-.65,18.72,3,27.34a1.09,1.09,0,0,1-.14,1c1.18,4.56,2.42,9.27,2.31,13.77-4.13-12.18-12-23.42-19.1-34a197.1,197.1,0,0,0-22-27.83c-4.41-3.08-9-6-13.62-8.76a.92.92,0,0,0,.14.39c4.86,9.31,11.15,17.63,17.65,25.86A197.91,197.91,0,0,1,465.58,677c-3.58-2.77-7.14-5.61-10.61-8.52-.83-.75-1.83-1.43-2.77-2.19a164.29,164.29,0,0,0,10.5,18.88c4.12,6,9.7,10.79,14.23,16.39-24.18-12.78-46-34.87-57.57-59.63-.69-1-1.53-1.93-2.23-2.87a1.15,1.15,0,0,0-.74,1.09c2,12.87,7.68,27.24,17.19,37-9.17-5.24-18.47-10.3-26.9-16.35-10.84-7.72-18.47-17.78-24.05-28.52-1.75-2.47-3.48-5-5.27-7.33a2.19,2.19,0,0,0-1,1.34A61,61,0,0,0,379,642.62c1.29,4.16,3.61,8.42,5.15,12.68-7.89-7.82-12.52-16.94-16.79-26.35a92.81,92.81,0,0,1-7.83-11.83c-.19.24-.39.44-.39.63-2.32,7.55-1.19,15.27-1,22.89-7.18-9.22-9.85-19.51-10.59-30.21-.65-2.78-1.23-5.49-2-8.23-.55-2.13-1.18-4.35-1.74-6.63-2.82,5.34-4.26,11.15-6.73,16.64-3.77-6.53-2.38-15.8.2-23.58.44-3,1-6,1.59-9a3,3,0,0,0-1.65.84c-5.53,7.15-9.26,15.51-16,22-2.66-13.22,1.87-28.57,11.7-40.26a48.29,48.29,0,0,1,10.39-13c-8.47,4.46-15.45,10.79-21.74,17.33a53.34,53.34,0,0,1,14-24.06c1.84-2.43,3.78-4.85,5.75-7.18-8.82,3.85-14.71,10.56-22.64,15.3,3-8,9.43-17,18.08-22.43a39.65,39.65,0,0,1,4.85-3.42,35.36,35.36,0,0,1,6.54-3,49.71,49.71,0,0,0-11.59,2.47c-2.52.94-5,2.09-7.51,3.06a41.44,41.44,0,0,1-4,1.5c.5-.19,4.52-4.86,4.56-4.9,4.86-4.36,11.21-7.62,17.29-10.7,6.94-3.57,14.36-4,21.9-5.5,1.78-.88,3.57-1.69,5.39-2.38-.05-.1-.09-.2-.38-.2-5.17-1.58-10.51-1.63-16-1.87,8.37-3.67,18.19-3.17,27.3-1.43.79.13,2.13-1,1.68-1.65-3.17-4.16-7.82-7.47-9.95-11.89A66.86,66.86,0,0,0,395.2,498.5c9.85,5.74,22.42,6.15,33.53,5.65,20.74-.94,40.85-7.93,61.35-10.65,22.73-3,45.52-5.69,68.51-6.5a260.51,260.51,0,0,1,32.93.46c5.89.54,11.5,1.92,15.85,6,2.17,2,3.82,4.16,6.13,5.89,4.42,12.34,25,4.85,36.71-4.56a50.17,50.17,0,0,1-16.54,14.86,2.47,2.47,0,0,0-.89,1.09,15.17,15.17,0,0,0,3.66.49c13.36-4.55,28.42-14.4,42.59-11.78-7.62,3.86-15.85,6.14-21.35,13.18,0,0,0,.1,0,.1,4.86-.1,9.66-1.2,14.52-1.6,9.26-2,18.37-2.28,27.34,1.19-8.17-.15-16.09,1.69-24.32,3.47a1.21,1.21,0,0,0-.51.3,81.15,81.15,0,0,0,8.54,2.32c13.62.74,28.18,3.43,37.48,12.92a22.82,22.82,0,0,0-2.92-1.28c-5.39-1.78-11.2-.88-16.78-1.37.68.59,1.28,1.28,1.93,1.92s1.42,1.64,2.13,2.43c10,4.06,20.31,10.79,26.09,19.57a2.87,2.87,0,0,0-.39-.46c-4.36-4.06-9.86-6.32-15.56-7.87a.06.06,0,0,0-.09,0c6.89,4.51,12.47,10.35,15.51,17.78C735.64,570.5,737.73,580.61,734.55,590Z"/><path class="cls-4" d="M637.72,510.78c-.49.15-1,.29-1.58.49a10.87,10.87,0,0,1-1.83-.1c-.94.69-1.74,1.4-2.62,2.08C633.7,512.41,635.75,511.57,637.72,510.78Z"/><path class="cls-4" d="M649.91,494.83a15.72,15.72,0,0,1-1.44,1.1,71.33,71.33,0,0,1-5.21,6.53A65.05,65.05,0,0,0,649.91,494.83Z"/><path class="cls-5" d="M685.57,560.1c6.53,1.9,12.18,5.37,17.73,9-3.17-12.68-14.12-21-26.51-24.46-1-.3,0-1.79.75-1.79,8.41.84,16.73,1.59,24.91,3.77-8.07-6.54-19.26-8.83-29.36-9.8-1.25-.1-.37-1.69.58-1.79,10.26-.69,20.16.88,30.22,3.13-3.17-9.17-16-12.29-24.46-13.73-9.27-1.48-19.27-2.32-28.69-.79-1.08.09-.88-1.4-.09-1.69,4.55-1.78,9.26-3.77,14.06-4.46-9.11-1.78-18.86-1.38-27.43,2.09-1.15.49-1.2-.9-.54-1.49a150.43,150.43,0,0,1,12.62-9.81c-8,2.19-15.5,6.15-23.33,8.83-1,.38-1.4-.9-.53-1.4a77.76,77.76,0,0,0,7.12-5.1,2.59,2.59,0,0,1,.8-.94,11.25,11.25,0,0,0,1.14-.7,73.7,73.7,0,0,0,10-10.39c-11.79,7.33-27.59,11.39-31.35.79-2.31-1.73-4-3.86-6.14-5.89-4.35-4.12-10-5.5-15.84-6a260.54,260.54,0,0,0-32.93-.46c-23,.81-45.78,3.48-68.51,6.5-20.5,2.72-40.61,9.71-61.36,10.65-11.1.5-23.67.09-33.53-5.65a47.18,47.18,0,0,1-5-2.09,47.26,47.26,0,0,0,22.17,9.76c1.11.16.55,1.63-.24,1.78-10.13,1.69-20.3-.24-30.4,0,6.59.45,13.52.94,18.37,5.26.59.54-.2,1.74-1,1.58-13.48-2.22-29.83-.24-40.77,8.72,10.2-1.34,20.26-2.44,30.55-1.63,1.2.09.42,1.68-.52,1.78a59.47,59.47,0,0,0-31,10.59c8.42-2.07,16.74-4.4,25.36-2.07,1,.25,0,1.53-.55,1.73-13.13,3.9-30.31,10.75-34.52,25.16,7.63-3.31,14.46-8.56,22.89-9.81,1-.15,1,1.14.34,1.54-13.72,8.42-24.27,20.41-24.51,36.84,6.78-7.92,15-14.15,23.23-20.54a.77.77,0,1,1,1,1.18c-10.45,10.37-14.47,24.47-14.17,38.79a58.9,58.9,0,0,1,19.06-27.24.74.74,0,0,1,1.11,1A40.53,40.53,0,0,0,371,609.63a57,57,0,0,1,6.89-15.19c.29-.41,1.48-1.09,1.59-.15a73.68,73.68,0,0,0,19.81,45.65c-.95-5.68-2.07-11.28-1.44-17.13.11-1,1.83-1.57,1.69-.39v.29c2.42,6,5.3,12,9.86,16.59-.5-7.28.38-14.4,4.24-20.84.37-.55,1.39-1,1.6-.16,3.56,16.74,12.93,32.48,25.2,44.48-3.81-8.88-6.53-18-6.34-27.79,0-.69,1.15-1.53,1.59-.73,4.25,7.18,8.68,14.11,14.71,19.85-1.23-3.86-3.16-7.57-3-11.79,0-.73,1.06-1.38,1.55-.69,6.73,8.42,13.12,17.14,19.7,25.76-3.46-6.94-7.67-13.49-10.05-20.91-.2-.7.91-1.58,1.54-1.08,5.74,4.75,12.18,8.61,18,13.27A89.29,89.29,0,0,1,493,674a171.68,171.68,0,0,1,11.69,15.76,78.31,78.31,0,0,0-6.23-15,122.44,122.44,0,0,0-15.8-23.57c-.58-.7.29-1.79,1.2-1.59,10.09,2.87,16.48,13.47,21.77,21.89a97.48,97.48,0,0,1,8.61,16.29c1.81,4.41,3.49,8.87,5.71,13.12-1.39-14.16-7.57-27.83-4.6-42.19.1-.7,1.09-1.15,1.54-.5,6.39,8.62,7.78,19.42,11.34,29.32,2.81-14.26,5.35-28.13,13.12-40.76.35-.55,1.74-1,1.55,0-1.31,10.21-3,20.31-4.87,30.41,4.46-6.44,7.23-14.06,12.23-20.14a111.08,111.08,0,0,1,19.32-18.59c.8-.5,1.58.2,1.1,1-4.62,9.23-9.92,18.58-11.3,29,8.22-10,17.05-19.71,29.76-23.77.94-.29.85.94.54,1.34a156.32,156.32,0,0,0-18.52,29c6.1-5.5,10.71-12.38,17.45-17.24,8.12-5.94,17-10.59,25.54-15.84.2-.1.36-.15.5-.21a9.34,9.34,0,0,1,2.88-1.48c.78-.19.94.64.68,1.2a29.88,29.88,0,0,1-2.76,4.45c-1.64,3.36-3.57,6.44-5.26,9.72,11.24-7.59,18.63-19.23,26.35-30.17.34-.55,1.4-.5,1.4.34-.3,7.92-3.83,15.35-8.14,22,9.52-7.87,13.28-20.6,22.54-28.88.41-.29,1.19-.24,1.23.31,1.1,7.57-.74,14.8-3.81,21.64,5.46-5.06,10.8-11.3,12.92-18.42,1.88-6.15,1.88-12.78,4.47-18.77.34-.56,1.19-.84,1.53-.35a30.23,30.23,0,0,1,4,11.94c1.94-7.59.81-15.51.76-23.43a1,1,0,0,1,1.63-.7,40.65,40.65,0,0,1,7.67,16.3c2.34-10.66.25-21.55-4.79-31.35-.45-.7.65-1.83,1.39-1.29,7.18,5.56,12.51,11.58,16.09,19.66.84-11.82-3.46-23.68-11-32.83A1,1,0,0,1,685.57,560.1Z"/><path d="M644.91,545.65a1.19,1.19,0,0,0-.71-1.44c-.53-.25-1.13-.5-1.67-.74-.21-.24-.54-.49-.74-.7-1.15-1.08-2.38-2.18-3.57-3.28-.7-.57-1.84.41-1.79,1.2a286.77,286.77,0,0,0-135-23.18c-22.85,1.68-47.85,2.28-69,11.7a91,91,0,0,0-15,8.6c1.19-1,2.13-2,3.18-3,.34-.39.05-1-.44-.65-11.24,9.22-24.09,18.58-29.42,32.64-5.05,13.17,3.41,26.31,13.12,34.68,10.84,9.46,25.41,14.61,39.07,18.46,19.21,5.37,39.32,8.23,59.1,9.92,22.37,1.92,45.8,1.38,67.7-3.87,18.42-4.36,37-8.27,54.08-16.64,13.12-6.33,29.91-17.23,36.16-30.91C665.71,566,653.87,554,644.91,545.65Z"/><path class="cls-6" d="M652.53,580.14c-3.72,6-9.71,10.4-15.3,14.46A120.75,120.75,0,0,1,614,607.82c-15.47,6.4-32.51,10.06-48.75,13.32-20.1,4-40.66,4.22-61,2.67-29.22-2.23-61.46-6.82-87.31-21.3-10.89-6.13-22.92-16.74-23.29-30.1a22.54,22.54,0,0,1,.86-6c10.14-17.33,27-29.81,46.22-35.81,9.63-3,19.93-4,29.91-4.9,12.22-1.18,24.46-2.68,36.74-3.18a294.12,294.12,0,0,1,67.2,5.26,325.6,325.6,0,0,1,33.83,8.51c11.15,3.37,21.24,9.37,32.29,13h.8C649.55,558.24,659.27,569.09,652.53,580.14Z"/><path class="cls-7" d="M641.49,549.23h-.8c-11.05-3.61-21.14-9.61-32.29-13a325.6,325.6,0,0,0-33.83-8.51,294.12,294.12,0,0,0-67.2-5.26c-12.28.5-24.52,2-36.74,3.18-10,.88-20.28,1.88-29.91,4.9-19.18,6-36.08,18.48-46.22,35.81a22.54,22.54,0,0,0-.86,6c.37,13.36,12.4,24,23.29,30.1,25.85,14.48,58.09,19.07,87.31,21.3,20.31,1.55,40.87,1.3,61-2.67,16.24-3.26,33.28-6.92,48.75-13.32a120.75,120.75,0,0,0,23.27-13.22c5.59-4.06,11.58-8.43,15.3-14.46C659.27,569.09,649.55,558.24,641.49,549.23Zm-67.12,53.08c-.74,4.84-9,7.53-12.73,8.87-6.07,2.17-12.27,3.51-18.42,5.39-12.08,4-26.59,2.77-39.12,2-7.08-.44-14.11-.84-21.25-1.43-17-1.34-34.38-3.53-50.31-9.66-8-3.07-15.76-7.39-22-13.47-3.27-3.22-15-16.6-8.57-21.1,3.47-2.43,9.61-.65,13.23.39,8.86,2.49,17.29,6.74,26,9.61a281.27,281.27,0,0,0,35.26,8.91c23.42,4.37,46.84,7.29,70.73,5.55C551.75,597,575.76,593.35,574.37,602.31Z"/><path d="M693,226.46c-11,2.81-22.27,3.59-33.22,6.23-13.87,3.31-26.94,8.67-39.67,14.91-23,11.18-45.57,24.26-70.57,30.8-20.41,5.3-45.13,7.67-62.26-6.83-13.36-7.08-25.95-15.66-39.58-22-17.28-7.91-35-18.81-54.22-20-16.89-1-44.58,2.25-58.4-10.64a45.56,45.56,0,0,0-.84,7.83c-.24,9,4.26,17.73,8.28,25.46,5.74,11.08,12.23,21.69,18.12,32.68s11,21.3,7,33.88c-3.08,9.5-9.52,17.68-12.93,27.14-5.11,14.06-4.41,29.12-.35,43.37,9.41,32.5,35.52,58.46,52.94,86.69A113.56,113.56,0,0,1,418,496.81c4.34,11.74-2.78,21.2-11,28.82a2.4,2.4,0,0,0-.49.4c-5.55,2.59-11.5,4.42-16.74,7.68-5.7,5.35-9.2,12.33-6.94,20.55a43.75,43.75,0,0,0,1.74,4.52c3.32,4,8.26,7,12.38,9.34,9.76,5.56,20.8,9,31.49,12.21,19.83,5.78,40.18,9.55,60.48,12.91a194.84,194.84,0,0,0,36.11,2.39,194.48,194.48,0,0,0,36-2.39c20.3-3.36,40.67-7.13,60.43-12.91,10.68-3.18,21.85-6.65,31.49-12.21,4.16-2.36,9.07-5.39,12.38-9.34a20.8,20.8,0,0,0,1.69-4.52c2.34-8.22-1.15-15.2-6.83-20.55-5.26-3.26-11.14-5.09-16.8-7.68a1.79,1.79,0,0,0-.44-.4c-8.22-7.62-15.4-17.08-10.94-28.82A111.59,111.59,0,0,1,642.76,476c17.45-28.23,43.54-54.19,52.86-86.69,4.16-14.25,4.84-29.31-.25-43.37-3.41-9.46-9.91-17.64-13-27.14-3.92-12.58,1.14-23,7.07-33.88s12.43-21.6,18.1-32.68c4-7.73,8.56-16.5,8.25-25.46a57.8,57.8,0,0,0-1.44-11.49C709,220.7,701.57,224.27,693,226.46Z"/><path class="cls-8" d="M693,226.46c-11,2.81-22.27,3.59-33.22,6.23-13.87,3.31-26.94,8.67-39.67,14.91-23,11.18-45.57,24.26-70.57,30.8-20.41,5.3-45.13,7.67-62.26-6.83-13.36-7.08-25.95-15.66-39.58-22-17.28-7.91-35-18.81-54.22-20-15.42-.93-39.67,1.75-54.39-7.57.25,8.82,2.77,16.24,7.19,24.72,5.64,10.89,12.08,21.34,18,32.13,4.71,8.58,10.8,18,10.45,28.19-.7,18.33-15.1,32-17.44,50.06-2.12,16.95,2.93,33.5,10.61,48.45,8.22,15.84,18.78,30.26,29,44.77,9,12.78,19.37,26.24,24.87,40.91a31.48,31.48,0,0,1,1.93,8.41,35,35,0,0,1-5,17.79c-4.65,7.53-12.63,11.74-20.4,15.3-4.5,2-11.24,4.91-11.9,10.55a11.45,11.45,0,0,0,.17,3.82,1.15,1.15,0,0,0-.3.24,7.88,7.88,0,0,0,.38,1.54c2.8,7.08,10.17,11.29,16.6,14.46a171.07,171.07,0,0,0,29.36,10.89c7.55,2.18,15.23,4.06,22.89,5.85-.25-.79,0-1.59,1-1.29,22.93,6,45.5,10.5,68.54,10.9,23-.4,45.46-4.86,68.45-10.9,1.08-.3,1.23.5,1.05,1.29,7.67-1.79,15.24-3.67,22.81-5.85a169.54,169.54,0,0,0,29.42-10.89c6.4-3.17,13.83-7.38,16.54-14.46a7.39,7.39,0,0,0,.46-1.54,1.76,1.76,0,0,1-.29-.24,12,12,0,0,0,.07-3.82c-.57-5.64-7.36-8.52-11.81-10.55-7.8-3.56-15.76-7.77-20.41-15.3a36,36,0,0,1-5-17.79,30.51,30.51,0,0,1,2-8.41c5.5-14.67,15.84-28.13,24.82-40.91,10.36-14.51,20.86-28.93,29-44.77,7.7-14.95,12.76-31.5,10.63-48.45-2.27-18.07-16.79-31.73-17.43-50.06-.34-10.15,5.81-19.61,10.44-28.19,5.86-10.79,12.35-21.24,18-32.13,5-9.62,7.62-18,7.08-28.48A50.22,50.22,0,0,1,693,226.46Z"/><path class="cls-2" d="M693,226.46c-11,2.81-22.27,3.59-33.22,6.23-13.87,3.31-26.94,8.67-39.67,14.91-23,11.18-45.57,24.26-70.57,30.8-20.41,5.3-45.13,7.67-62.26-6.83-13.36-7.08-25.95-15.66-39.58-22-17.28-7.91-35-18.81-54.22-20-15.42-.93-39.67,1.75-54.39-7.57.25,8.82,2.77,16.24,7.19,24.72,5.64,10.89,12.08,21.34,18,32.13,4.71,8.58,10.8,18,10.45,28.19-.7,18.33-15.1,32-17.44,50.06-2.12,16.95,2.93,33.5,10.61,48.45,8.22,15.84,18.78,30.26,29,44.77,9,12.78,19.37,26.24,24.87,40.91a31.48,31.48,0,0,1,1.93,8.41,35,35,0,0,1-5,17.79c-4.65,7.53-12.63,11.74-20.4,15.3-4.5,2-11.24,4.91-11.9,10.55a11.45,11.45,0,0,0,.17,3.82,1.15,1.15,0,0,0-.3.24,7.88,7.88,0,0,0,.38,1.54c2.8,7.08,10.17,11.29,16.6,14.46a171.07,171.07,0,0,0,29.36,10.89c7.55,2.18,15.23,4.06,22.89,5.85-.25-.79,0-1.59,1-1.29,22.93,6,45.5,10.5,68.54,10.9,23-.4,45.46-4.86,68.45-10.9,1.08-.3,1.23.5,1.05,1.29,7.67-1.79,15.24-3.67,22.81-5.85a169.54,169.54,0,0,0,29.42-10.89c6.4-3.17,13.83-7.38,16.54-14.46a7.39,7.39,0,0,0,.46-1.54,1.76,1.76,0,0,1-.29-.24,12,12,0,0,0,.07-3.82c-.57-5.64-7.36-8.52-11.81-10.55-7.8-3.56-15.76-7.77-20.41-15.3a36,36,0,0,1-5-17.79,30.51,30.51,0,0,1,2-8.41c5.5-14.67,15.84-28.13,24.82-40.91,10.36-14.51,20.86-28.93,29-44.77,7.7-14.95,12.76-31.5,10.63-48.45-2.27-18.07-16.79-31.73-17.43-50.06-.34-10.15,5.81-19.61,10.44-28.19,5.86-10.79,12.35-21.24,18-32.13,5-9.62,7.62-18,7.08-28.48A50.22,50.22,0,0,1,693,226.46Z"/><path class="cls-9" d="M663.61,543.32c-.57-5.64-7.36-8.52-11.81-10.55-7.8-3.56-15.76-7.77-20.41-15.3a5.94,5.94,0,0,0-.41-.64,42.72,42.72,0,0,0,4,8.62c3.16,5.24,10.94,12.73,8.22,19.65-2.28,5.5-10.75,7.73-15.55,9.47-6.15,2.27-26.45,10.49-26.75-2.53-.33-11.24,6.4-22.14,8.58-33-14.12,6.62-29.44,10.09-44.93,12a416.05,416.05,0,0,1-46.9,3.46c-30.67.29-61-14.91-88.45-28.63,5.33,19.36,22.52,45.37,35.91,59.48.58.65-.17,1.63-.89,1.63-11.4-.1-23.08-2.57-34-5.69-9-2.62-24.12-6.68-28.32-16.39-2.58-6.05.25-11.39,4.26-16.05-2.58,1.44-5.2,2.78-7.83,4-4.5,2-11.24,4.91-11.9,10.55a11.45,11.45,0,0,0,.17,3.82,1.15,1.15,0,0,0-.3.24,7.88,7.88,0,0,0,.38,1.54c2.8,7.08,10.17,11.29,16.6,14.46a171.07,171.07,0,0,0,29.36,10.89c7.55,2.18,15.23,4.06,22.89,5.85-.25-.79,0-1.59,1-1.29,22.93,6,45.5,10.5,68.54,10.9,23-.4,45.46-4.86,68.45-10.9,1.08-.3,1.23.5,1.05,1.29,7.67-1.79,15.24-3.67,22.81-5.85a169.54,169.54,0,0,0,29.42-10.89c6.4-3.17,13.83-7.38,16.54-14.46a7.39,7.39,0,0,0,.46-1.54,1.76,1.76,0,0,1-.29-.24A12,12,0,0,0,663.61,543.32Z"/><path class="cls-10" d="M507.92,498.74a106.65,106.65,0,0,0,11.43.54c1.64,0,3.27,0,4.87,0C518.8,499,513.35,498.84,507.92,498.74Z"/><path d="M681.06,242.26a4.74,4.74,0,0,1,3.07-3.38c9.81-4.27,18.27-10.11,24.17-18.83A52.34,52.34,0,0,1,693,226.46c-11,2.81-22.27,3.59-33.22,6.23-13.87,3.31-26.94,8.67-39.67,14.91-23,11.18-45.57,24.26-70.57,30.8-20.41,5.3-45.13,7.67-62.26-6.83-13.36-7.08-25.95-15.66-39.58-22-17.28-7.91-35-18.81-54.22-20-15.42-.93-39.67,1.75-54.39-7.57a50.33,50.33,0,0,0,.9,8c9.55,4.06,19.26,8.49,29.76,6.84a.72.72,0,0,1,.84.75c0,9.36.84,18.08,5.25,26.51.46.78-.65,1.87-1.4,1.28-4.79-3.42-8.36-8.09-12.25-12.49,2.41,7.73,7.06,14.57,11.24,21.45.38.74-.76,2-1.44,1.34a37,37,0,0,0-10.86-7.43c6.63,15.59,24.42,24.41,38.88,31,18.67,8.43,40.92,20.46,62,14.86a36.88,36.88,0,0,0,8.51-3.42,1.85,1.85,0,0,1,.68-.44,25.83,25.83,0,0,0,6.16-4.76c2.36-2.57,4.6-5.55,7.38-7.57,3.95-2.83,7.76-3.32,11,.65,3.56,4.35,4.69,11.08,5.38,16.48.61,5.1,1.1,10.44.15,15.5,0,.6-1.15,1.74-1.52.8-5.7-11.7-15.87-17.94-28.55-19.22a3.56,3.56,0,0,0-.63.34,43.66,43.66,0,0,1-25.06,4.36c-11.5-1.24-22.78-5-33.69-9.7-9.06-1.88-18.42-.35-25.11,6.53-5.63,5.89-9.25,13.43-11.29,21.29-5.29,20.36-1.63,42.75,4.52,62.52a226.86,226.86,0,0,0,27.24,58c4.45,6.79,9.15,13.57,12.68,21a40.53,40.53,0,0,1,3.81,11.1c.6,2.28,1.25,4.66,1.69,7.13,10.34.2,20.64.7,30.94,1.14,11.74.54,23.49.65,35.22.85,2.53-5.56,4.91-11.19,10-14.77.35-.29,1-.35,1.19,0,.34.55.65,1,1,1.49.53.84-1,2.09-1.6,1.18-1.43-2.26-6.37,7-8.86,12.1,10.25.09,20.47.24,30.66.68,21.05.94,42.1,2.53,63.09,2.14a265.21,265.21,0,0,0,29.22-2,44.94,44.94,0,0,1,2.24-9.27c-.6.11-1.19-.29-.74-1.08,4.64-8,9-16.25,14.21-23.88,3.51-5.64,6.94-11.3,9.21-17,.39-.94,2.12-1.09,1.62.11-.63,1.63-1.38,3.27-2.17,4.85,2.84-3.86,5.66-7.72,8.52-11.58,10.84-14.57,22-29.92,27.64-47.51,6.39-20.06,4.54-40.31-6.09-58.63-4.17-7.09-9.51-16.39-16.45-21-7.78-5.24-15.58-1.59-23.42,1a14.07,14.07,0,0,1,.29,2.48c.06,1-1.63,1.6-1.68.36s-.94-1.64-2.27-1.75c-.61.21-1.24.34-1.84.5-.45.05-.59-.05-.7-.29-4.35.84-10.25,3.46-11.53,3.85a88.35,88.35,0,0,1-15.3,3c-4.71.55-9.47,1.14-14.33,1.64a69,69,0,0,0-7.32,1.53,84.67,84.67,0,0,0-11.79,4.75c-4.56,2-14.7,7.72-19,2.48-1.34-1.64-1.15-4.5-1-6.5a88.37,88.37,0,0,1,1.27-11.88c.61-3.76,1.3-7.42,2.23-11.09.11-.36.26-.8.41-1.3a44.56,44.56,0,0,1,.84-6.72,1.06,1.06,0,0,1,1.33-.8c5.61,1.59,7.39,6.94,11.9,9.9a50.35,50.35,0,0,0,22.82,7.73A132.27,132.27,0,0,0,629.64,308c24.38-6.25,45.08-22.69,58.83-43.5a100.35,100.35,0,0,1-15,10.31c-.89.5-1.24-.69-.76-1.33,5-5.7,9.73-11.54,12.7-18.47a16.39,16.39,0,0,1-6.49,4.56c-.75.34-1.39-.31-.94-1C681.16,253.84,679.33,247.6,681.06,242.26Z"/><path class="cls-2" d="M550.09,453.43a45.26,45.26,0,0,1-4.37-6.34c-8.91-15.54-10.29-34.53-9-52a234.09,234.09,0,0,1,12.73-59.38v-.06c4-6.88,9.2-12.62,16.28-16.49,6.5-3.51,13.52-3.86,20.71-4.85,9.17-1.28,18.28-3.87,27.38-5.74a80.38,80.38,0,0,1,18.28-1.78c-24.8,4.06-49.47,10.3-62.54,34.56-9,16.55-11.85,36.06-15,54.43S547.86,434.61,550.09,453.43Zm2.93,3.66c-1.48-19,1-37.93,4.06-56.75,2.88-17.35,6-35.56,12.64-52,12-29.51,40.81-35.16,68.5-41.09a31.84,31.84,0,0,1,17.43,8.2c-12.78,5-25.7,9.56-37.59,16.3-13.91,7.82-23.72,20.06-30.57,34.23-7.26,15.15-10,32.29-12.76,48.74-1.48,8.8-3.08,17.72-4.67,26.54-1.63,9.06-3.95,18.22-4,27.43A121.19,121.19,0,0,1,553,457.09Zm32.1,29c-5.14-6.24-11.43-11.2-17.57-16.14,1.44-16.61,5.54-32.79,8.7-49.14s6.6-32.79,12.68-48.43c6.61-16.6,16.91-29.63,32.35-38.79,11.35-6.78,24.13-10.74,36-16.48a29.37,29.37,0,0,1,3.52,4.56,40.2,40.2,0,0,1,4.67,11.39c-4.61,2.67-9.73,4.94-14,8a123.75,123.75,0,0,0-17.12,15c-10.74,11.13-17.59,26.24-23.29,40.41-6.29,15.45-10.3,31.85-14.2,48-3.47,14.61-3.83,30.7-9.22,44.81C586.81,488.2,586,487.16,585.12,486.12Zm12.73,22.18a58.4,58.4,0,0,0-9.36-17.92c5.5-11.3,5.24-24.57,8.42-36.57,4.66-17.57,9.76-35.15,16.36-52.14,6.23-15.9,13.46-32.24,25.3-44.82A104.93,104.93,0,0,1,658.48,340c2.62-1.63,5.1-3.17,7.51-4.9,1.9,9.26,1.4,19.27.06,28.28-9,7.52-15.15,18.42-20.41,28.57-7.48,14.71-13,30.56-18.81,46.11-5.94,16-11,32.25-15.94,48.53-4.61,15.41-7.68,31.41-12.6,46.77C597.79,525,600.34,516.57,597.85,508.3Zm51.07-87.46c-7.67,20.3-16,40.41-23.63,60.76a245.6,245.6,0,0,1-26,50.68c3.76-12.39,6.15-25.17,9.91-37.63,5.33-17.29,11.88-34.19,18.51-51.08,5.86-15,11.94-30,18.67-44.66,5-11.3,11.55-21,18.83-30.46C661.86,386.32,655.31,403.94,648.92,420.84Z"/><path class="cls-2" d="M490.31,396.48c-3.13-18.33-6.05-37.85-14.92-54.39-13.12-24.27-37.72-30.51-62.54-34.67a80.09,80.09,0,0,1,18.27,1.88c9.11,1.89,18.14,4.41,27.45,5.7,7,1,14.15,1.33,20.6,4.86a42.4,42.4,0,0,1,16.33,16.48v.06a237.41,237.41,0,0,1,12.68,59.38c1.35,17.53,0,36.5-8.91,52.09a59.14,59.14,0,0,1-4.36,6.35C497.15,435.4,493.43,414.8,490.31,396.48Zm-11.06,72.94C479,460.21,476.7,451.09,475,442c-1.48-8.9-3.06-17.73-4.6-26.59-2.72-16.4-5.5-33.52-12.72-48.69-6.9-14.2-16.7-26.45-30.61-34.27-11.9-6.72-24.83-11.34-37.58-16.28A31.74,31.74,0,0,1,406.93,308c27.68,5.9,56.55,11.58,68.49,41.11,6.58,16.34,9.82,34.67,12.69,52,3,18.7,5.5,37.73,4,56.73A116.06,116.06,0,0,1,479.25,469.42Zm-21.72,20.67c-5.38-14.17-5.63-30.28-9.19-44.89-3.93-16.09-7.93-32.54-14.17-47.94-5.69-14.16-12.58-29.31-23.23-40.46a123.17,123.17,0,0,0-17.18-14.9c-4.25-3.18-9.42-5.35-14.08-8.12a41.35,41.35,0,0,1,4.77-11.36,34.52,34.52,0,0,1,3.41-4.6c11.94,5.8,24.67,9.72,36.06,16.55,15.36,9.21,25.75,22.24,32.24,38.78,6.18,15.65,9.55,32,12.72,48.48,3.19,16.25,7.25,32.49,8.76,49.08-6.18,5-12.43,10-17.62,16.19C459.18,487.9,458.39,489,457.53,490.09Zm-10.69,44c-4.9-15.25-8-31.29-12.62-46.66-4.91-16.35-9.91-32.59-15.91-48.53-5.74-15.54-11.28-31.4-18.86-46.16-5.2-10.16-11.38-21.09-20.36-28.52-1.32-9-1.87-19,.15-28.35,2.34,1.75,4.9,3.28,7.44,4.9a104.45,104.45,0,0,1,19.95,16.9c11.79,12.59,19.06,28.93,25.26,44.78,6.64,17,11.69,34.57,16.34,52.2,3.17,12,2.93,25.2,8.52,36.5a58.91,58.91,0,0,0-9.46,18C444.81,517.38,447.4,525.74,446.84,534.06Zm-66.9-164.83a155.19,155.19,0,0,1,18.87,30.41c6.68,14.76,12.77,29.72,18.67,44.73,6.53,16.88,13.18,33.73,18.42,51.06,3.82,12.37,6.29,25.16,10,37.64a246.37,246.37,0,0,1-26-50.71c-7.66-20.31-16-40.42-23.67-60.77C389.89,404.7,383.3,387.05,379.94,369.23Z"/><path class="cls-11" d="M554.52,395.73c3.12-18.37,6-37.88,15-54.43a59.84,59.84,0,0,1,6.83-10c-7.32,5-13.82,11-17.83,19.51-1.29,2.62-10.21,22.26-14.41,12.59a17.93,17.93,0,0,1-1.34-5.44A223.3,223.3,0,0,0,536.64,395c-1.34,17.52,0,36.51,9,52a46.12,46.12,0,0,0,4.37,6.34C547.74,434.61,551.4,414,554.52,395.73Z"/><path class="cls-12" d="M555.54,328.22a49.14,49.14,0,0,1,6.44-6.74A44.86,44.86,0,0,0,549.5,335.6v.06c-.35.94-.61,1.88-1,2.77A91.13,91.13,0,0,1,555.54,328.22Z"/><path class="cls-13" d="M584.67,365.07c-3.8,6.05-6.28,12.78-10,18.92-1.63,2.69-4.94,5-7.53,1.83-3.85-4.7-2.22-12.13-1.08-17.53a85,85,0,0,1,6.64-20.55c5.15-11,12.52-21.3,23-27.54-11.13,5.8-20.36,14.42-25.95,28.13-6.59,16.45-9.76,34.66-12.64,52-3.06,18.82-5.54,37.73-4.06,56.75a121.19,121.19,0,0,0,13,11.59c.1-9.21,2.42-18.37,4-27.43,1.59-8.82,3.19-17.74,4.67-26.54,2.76-16.45,5.5-33.59,12.76-48.74a95.27,95.27,0,0,1,9.23-15.26A70.49,70.49,0,0,0,584.67,365.07Z"/><path class="cls-14" d="M644.07,387.86c-6.84,8.81-9.26,19.8-15,29.11-2.24,3.62-14.54,19-18,8.52-2.13-6.43-.61-14.4,1.08-21-6.08,16.15-10.81,32.69-15.25,49.31-3.18,12-2.92,25.27-8.42,36.57a58.4,58.4,0,0,1,9.36,17.92c2.49,8.27-.06,16.7.44,25.07,4.92-15.36,8-31.36,12.6-46.77,5-16.28,10-32.53,15.94-48.53,5.8-15.55,11.33-31.4,18.81-46.11,2.39-4.5,4.85-9.1,7.68-13.53A61.09,61.09,0,0,0,644.07,387.86Z"/><path class="cls-15" d="M627.92,330c-2.23,1.15-4.52,2.34-6.64,3.62-.7.4-1.33.79-2,1.25,1.18-.5,2.53-1,3.81-1.44C624.64,332.24,626.32,331.1,627.92,330Z"/><path class="cls-16" d="M629,360c-8.32,6-12.79,14.47-17.29,23.38-2,3.86-11.75,24.66-19.21,17.08-4-4.1-2.53-14-1.69-19a62.17,62.17,0,0,1,6.94-20.21c5.34-9.61,12.68-17.63,20.94-24.57-2.12,1-4.2,1.94-6.29,3.08-10.59,8.51-18.23,19.41-23.48,32.59-6.08,15.64-9.5,32-12.68,48.43S569,453.37,567.55,470c6.14,4.94,12.43,9.9,17.57,16.14.86,1,1.69,2.08,2.48,3.16,5.39-14.11,5.75-30.2,9.22-44.81,3.9-16.14,7.91-32.54,14.2-48,5.4-13.58,11.94-28,21.85-38.93C631.58,358.33,630.29,359.13,629,360Z"/><path class="cls-17" d="M637,451.23c-6.47-.78-5.29-9.21-4.11-13.67,2.67-9.46,5.26-19.3,9-28.57-5,11.44-9.62,22.94-14.17,34.47-6.63,16.89-13.18,33.78-18.51,51.07-3.76,12.47-6.15,25.25-9.91,37.64a246.11,246.11,0,0,0,26-50.68c3.82-10.14,7.78-20.15,11.73-30.26Z"/><path class="cls-18" d="M456.75,491.12c-5.59-11.3-5.35-24.52-8.52-36.5-4.65-17.63-9.7-35.17-16.34-52.2-1.23-3.17-2.52-6.34-3.85-9.62,1,2.74,1.91,5.5,2.7,8.34a155.37,155.37,0,0,1,5.8,40.89c0,3.28.56,21.5-7.32,17.1a19,19,0,0,1-5.66-5.5c3.77,11.14,7.23,22.43,10.66,33.77,4.64,15.37,7.72,31.41,12.62,46.66.56-8.32-2-16.68.45-24.95A58.91,58.91,0,0,1,456.75,491.12Z"/><path class="cls-19" d="M425.85,466.21a20.49,20.49,0,0,1-1.4,7.72c-.24.4-.78,1.05-1.39.79-5.19-2.67-8.62-8-11.24-13.26,2.73,6.92,5.45,13.86,8.08,20.9a246.37,246.37,0,0,0,26,50.71c-3.66-12.48-6.13-25.27-10-37.64C432.93,485.56,429.48,475.82,425.85,466.21Z"/><path class="cls-20" d="M386,392.86c3.12,9.75,6.68,19.36,10.21,28.73.35.87.65,1.74,1,2.62C393.76,413.61,390.78,402.82,386,392.86Z"/><path class="cls-21" d="M468.88,421.63c-3.17-16.44-6.54-32.83-12.72-48.48-5.81-14.71-14.71-26.7-27.39-35.61a74.54,74.54,0,0,1,17.83,18.91c6.74,10.65,10,22.59,12.29,34.87,1.13,6,2.17,12.09,3.45,18.12,1.05,4.56,2.05,9.27,1.3,14-.4,3.06-3.23,8.26-7.08,6.52-4.91-2.28-7.93-8.61-10.31-13-3.28-6.25-6-12.73-8.71-19.17a96.52,96.52,0,0,0-14-23.39,218,218,0,0,1,10.61,22.89c6.24,15.4,10.24,31.85,14.17,47.94,3.56,14.61,3.81,30.72,9.19,44.89.86-1.1,1.65-2.19,2.49-3.19,5.19-6.24,11.44-11.24,17.62-16.19C476.13,454.12,472.07,437.88,468.88,421.63Z"/><path class="cls-22" d="M508.18,395.78A237.41,237.41,0,0,0,495.5,336.4v-.06a47.52,47.52,0,0,0-10.69-12.68,71.2,71.2,0,0,1,4.81,9.22c3.46,8.22,6.18,17.48,4.94,26.45-.33,2-1.38,4.5-3.81,4.06-4.88-.89-6.32-8.22-7.08-12.09-1.73-9.12-8.76-18.32-16.59-23.27a40.06,40.06,0,0,0-6.34-3.27,54.5,54.5,0,0,1,14.65,17.33c8.87,16.54,11.79,36.06,14.92,54.39s6.84,38.92,4.6,57.74a59.14,59.14,0,0,0,4.36-6.35C508.18,432.28,509.53,413.31,508.18,395.78Z"/><path class="cls-23" d="M488.11,401.14c-2.87-17.34-6.11-35.67-12.69-52a51.44,51.44,0,0,0-15.15-21c8.42,10.06,13.48,22.49,16.54,35.57.83,3.66,8.32,29.7-1.1,30.51-5.83.44-8.2-5.45-9.81-10-2.87-8.51-6.18-16.94-10.82-24.67-5.27-8.56-12.3-17.08-21-22.43,10.29,7.68,17.93,18,23.63,29.66,7.22,15.17,10,32.29,12.72,48.69,1.54,8.86,3.12,17.69,4.6,26.59,1.68,9.06,4,18.18,4.23,27.39a116.06,116.06,0,0,0,12.86-11.55C493.61,438.87,491.12,419.84,488.11,401.14Z"/><path d="M510.5,441v-.59a71.33,71.33,0,0,1-3.42,8.23c-.83,1.88-1.82,3.75-2.76,5.54A43.52,43.52,0,0,0,510.5,441Z"/><path d="M600.38,516.63c-2-10.11-8.62-18.42-15.3-25.91-8.58-9.5-18.09-18-27.09-26.89-9.61-9.61-16.65-20.1-19.53-33.48-.18-.89-.38-1.84-.57-2.78-2.43-6.39-2.83-13.36-2.83-20.2,0-9.55-.4-19.12-.71-28.63-.52-15.74-2.71-32.09-.83-47.84-.11-1.18-.16-2.37-.16-3.56-.19-13.88-.45-28.69-3.36-42.25a13.39,13.39,0,0,0-1-3,64.56,64.56,0,0,1-10.2-.31c-1.93,3.13-2.72,7.05-3,10.91-.74,2.86-1.18,5.3-1.33,6.14-1.09,6.83-2.12,13.71-2.86,20.61.57,8.7-.7,17.42-1.8,26.19.15,15.11.36,30.11.3,45.21.39,4.85.69,9.72.95,14.56,1.12,25.17-6.24,45.22-24.73,62.51-15.24,14.31-38.92,29.51-40.41,52.4-1,14.17,11.74,27.63,22.68,35.75,20.91,15.46,48.64,19.42,73.89,16.55,12.49-1.38,26.71-3.17,37.56-9.9,7.68-4.81,11.94-11.05,16.3-18.64A39.31,39.31,0,0,0,600.38,516.63Z"/><path class="cls-6" d="M595.54,520.19A39.31,39.31,0,0,0,587.9,503c-8.73-11.55-20-20.95-30.21-31.25-9.17-11.55-16.49-24.23-20.85-38.29A119.88,119.88,0,0,1,532,406.88c-.13-3.38-.29-6.74-.33-10.11-.11-2.38-.11-4.66,0-6.94a1,1,0,0,0-.24-.59c-.26-10.1-.21-20.21.33-30.35,0-5.36.16-10.76,0-16.11-.25-11.49-1.57-23-2.72-34.42-.84-7.77-.15-18-3.52-25.3,0,.05-.25,0-.3-.11a8.37,8.37,0,0,0-1.18-.84c-.65,0-1.15,0-1.72,0-3.33,1.38-4.77,11.68-5.17,13.86-1,5.94-2.07,12-2.82,18-2.13,17.68-2.42,35.1-2.52,52.69,2.77,26.39,5.05,55.77-4.22,80.08-.19.7-.5,1.34-.74,2a73.49,73.49,0,0,1-6.33,10.1c1.27-1.48,2.41-3,3.56-4.56C492.42,474,467.7,487.6,455.72,506c-15.31,23.54,8.06,42.7,29.85,53.49a97.43,97.43,0,0,0,22.78,7.64c24.73,5.09,62.65,1.38,80.58-18.67C594.43,540.3,596,530.4,595.54,520.19Z"/><path class="cls-7" d="M595.54,520.19A39.31,39.31,0,0,0,587.9,503c-8.73-11.55-20-20.95-30.21-31.25-9.17-11.55-16.49-24.23-20.85-38.29A119.88,119.88,0,0,1,532,406.88c-.13-3.38-.29-6.74-.33-10.11-.11-2.38-.11-4.66,0-6.94a1,1,0,0,0-.24-.59c-.26-10.1-.21-20.21.33-30.35,0-5.36.16-10.76,0-16.11,0-2.12-.14-4.25-.31-6.28-1.72,16.79-4.09,33.63-4.25,50.66-.19,18.32,1.69,38.43,7.84,55.87,5.5,15.65,15.14,28.28,25.75,40.81.64.7-.2,1.78-1,1.58-13.56-3.26-30.41,1.79-36.54,15.07-.25.47-1.13,1-1.49.28-3.57-7.33-9.26-14.06-17.29-16.49-9.11-2.78-18.18-.55-26.09,4.41-1,.56-1.59-.4-1-1.19,9.71-13,24.66-21,32.49-35.6,9-16.65,7.93-35.81,6.94-54.08-1.23-24-3.72-48.05-3.61-72-1.15,13.62-1.29,27.2-1.39,40.82,2.77,26.39,5.05,55.77-4.22,80.08-.19.7-.5,1.34-.74,2a73.49,73.49,0,0,1-6.33,10.1c1.27-1.48,2.41-3,3.56-4.56C492.42,474,467.7,487.6,455.72,506c-15.31,23.54,8.06,42.7,29.85,53.49a97.43,97.43,0,0,0,22.78,7.64c24.73,5.09,62.65,1.38,80.58-18.67C594.43,540.3,596,530.4,595.54,520.19ZM514.6,543.37c-4.5,5-10.74,6.73-17,3.77-7.12-3.46,2.88-9.22,5.34-11.3,16.15-14-32.24-35.85-30.5-14,0,.53-.64,1.63-1.33,1.19-12.39-7-4.16-20.12,5.2-25.61a.63.63,0,0,1,.44-.15c11.35-7.83,29.11-6.54,36.59,5.95C519.7,513.85,523.77,533.12,514.6,543.37Zm66.85-26.24a.92.92,0,0,1-1.34.48c-5.54-3.71-14.06-.23-19.3,2.58s-12.13,6.88-12.29,13.46c-.19,5,.65,10-3.95,13.23s-9.67-.55-12.68-4c-14.91-17.24,3.17-48.38,24.21-48.93.7,0,.6.71.25,1.18,6-.78,11.84.1,17.28,4.06C579.37,503.4,584.93,509.74,581.45,517.13Z"/><path d="M464,504.65c-4.06,5.09-6.28,11.68-4.56,18.11,2.23,8,10.16,11.75,17.2,14.37,4.1,1.58,15.35,4.85,17.32-1.29a7.79,7.79,0,0,0,1.05.79,1.66,1.66,0,0,0,1.78,0c1.48,1.62,4.71-1.24,4.66-3.07-.64-9.77-16.61-18.19-25.47-17.19-.94.06-2.46,1.68-1.58,2.68,2.48,2.67,5.64,4.74,8.43,7.08s7.82,5.69,8.41,9.46c.45,2.72-12.71-1.3-13.71-1.64-4-1.54-8-3.41-11.11-6.38-13.87-13.89,6.35-30.07,18.73-34.48,7.37-2.72,15.85-3.17,23,.26,10.44,5,13.52,19.46,15,29.76a41.35,41.35,0,0,1,.5,4.46,49.16,49.16,0,0,0-.5,11.39c-1.38,8.22-5.29,15.74-13.42,19.25-10.69,4.67-23.56.25-31.89-7.07-.21-.21-.54.2-.34.39C491,568.33,515.84,567.25,525.1,547c8.07,20.77,32.89,23.14,47.3,7,.15-.2-.21-.59-.4-.39-8.68,6.92-21.74,10.58-32.2,5.4-7.91-4-11.49-11.65-12.39-20a43,43,0,0,0,.11-11.4c.2-1.53.45-3,.76-4.45,2.06-10.22,5.88-24.46,16.53-28.93,7.33-3.08,15.8-2.13,23,.88,12.07,5.16,31.49,22.39,16.87,35.47-3.22,2.88-7.31,4.56-11.34,5.84-1.08.31-14.4,3.62-13.86.9.79-3.76,6-6.88,8.91-9s6.19-4.06,8.81-6.63c1-.89-.54-2.63-1.48-2.77-8.77-1.4-25.14,6.13-26.29,15.89-.25,1.83,2.92,4.85,4.45,3.27a1.92,1.92,0,0,0,1.77.2,6.2,6.2,0,0,1,1.16-.74c1.63,6.23,13,3.56,17.19,2.17,7.18-2.27,15.3-5.58,17.86-13.47,2.14-6.28.26-13-3.56-18.33-8.62-11.88-25.85-21.78-40.95-18.12-9.32,2.28-14.51,9.37-17.88,17.93-1.24,3.26-2.52,6.74-3.62,10.4-.88-3.66-2-7.22-3.06-10.5-3-8.82-7.68-16.15-16.91-18.92C491,484.19,473.25,493.15,464,504.65Z"/><path d="M690.77,264.93c-18.58,25.46-82.61,52.3-113.72,33.63,13.49,5.4,28.79,2.92,43,.93,27.69-4,55.79-20.1,64.67-46,.55-1.48-1.77-.6-2.17.09a80.65,80.65,0,0,1-12.24,16.65c5.9-12.57,5.85-27.58-2.33-39.23-2.72.44-5.44,1-8.12,1.64-13.87,3.31-26.94,8.67-39.67,14.91-16.2,7.81-32.09,16.64-48.78,23.47a70,70,0,0,0-1.83,11.19,23.62,23.62,0,0,1-2.72-9.46c-.8.34-1.8.65-2.63,1a33.36,33.36,0,0,0-.4,9.66,46.36,46.36,0,0,1-2.73-8.53c-.85.26-1.68.56-2.47.81,10.95,59.33,110.84,25.95,133-10.45C692.06,264.52,691.16,264.34,690.77,264.93Z"/><path class="cls-24" d="M662.83,232c-1,.2-2,.39-3,.65-13.87,3.31-26.94,8.67-39.67,14.91-14.7,7.08-29.13,15-44.14,21.45a94.07,94.07,0,0,0-4.64,16c3,3.57,7.33,6.34,13.62,7.78,12.81,2.93,25.91,1,38.72-1,12.09-2.09,24.42-5.46,34.67-11.89a57.89,57.89,0,0,0,9.36-7.25C674,259,675.32,242.44,662.83,232Z"/><path d="M612.77,249.82c-6.55,3.18-13.67,8.33-21.16,10.85a29.78,29.78,0,0,0,58.88-6.55,30.15,30.15,0,0,0-5.58-17C634,241,623.07,244.82,612.77,249.82Z"/><path class="cls-25" d="M612.77,249.82c-4.27,2.08-8.83,5-13.48,7.39a21.52,21.52,0,0,0,43-2.09,21.06,21.06,0,0,0-6.2-14.86A241.68,241.68,0,0,0,612.77,249.82Z"/><path d="M625.14,244.38c-4.22,1.72-8.31,3.51-12.37,5.44-.94.46-1.88.94-2.8,1.44a11.45,11.45,0,0,0-.52,3.62,11.29,11.29,0,1,0,15.69-10.5Z"/><path class="cls-2" d="M620.89,266.9a9.66,9.66,0,0,1-19.32.16,9.74,9.74,0,0,1,9.61-9.75A9.62,9.62,0,0,1,620.89,266.9Z"/><path class="cls-2" d="M631.39,275.58a5,5,0,0,1-9.92.1,5,5,0,1,1,9.92-.1Z"/><path class="cls-26" d="M583.43,277.27c10.41-4.42,21.3-7.49,32.15-10.56a244.23,244.23,0,0,0,33-11.78c7.42-3.22,15.24-6.29,23.27-7A25.61,25.61,0,0,0,662.83,232c-1,.2-2,.39-3,.65-13.87,3.31-29.56,7.78-42.4,14-14.56,7.14-26.4,15.9-41.41,22.35a103.73,103.73,0,0,0-4.25,14.3A65.6,65.6,0,0,1,583.43,277.27Z"/><path d="M488.25,272.3a.63.63,0,0,0-.69.6,45.24,45.24,0,0,1-3.31,11.74c.63-4.95-.37-10.4-1.55-15.59-.5-.26-1-.55-1.54-.85.5,5.64-.29,10.94-2.65,15.25a68.58,68.58,0,0,0-4.37-19.3c-8.68-5.11-17.3-10.31-26.41-14.58-17.28-7.91-35-18.81-54.22-20-3.43-.14-7.18-.24-11.25-.24-.35.39-.68.79-1,1.18-9.31,11.89-9.66,27.73-3.42,40.91a77.5,77.5,0,0,1-12.23-16.63c-.45-.71-2.72-1.59-2.17-.15,8.76,25.9,37,42,64.68,46,14.11,2,29.42,4.46,42.94-1-31.17,18.79-95.15-8.12-113.73-33.57-.38-.6-1.28-.4-.83.31,22.54,37,125.45,70.91,133.53,7.46a.66.66,0,0,0-.06-.34C489.38,273.14,488.8,272.75,488.25,272.3Z"/><path class="cls-24" d="M447.73,249.57c-17.28-7.91-35-18.81-54.22-20-.89-.05-1.88-.05-2.82-.14-.89.58-1.79,1.08-2.62,1.68-15.51,10.15-14.48,28.13-7.79,42.74a62.51,62.51,0,0,0,9.36,7.18c10.3,6.44,22.6,9.81,34.67,11.9,12.82,2.06,25.91,4,38.72,1,6.29-1.44,10.72-4.22,13.63-7.78a89,89,0,0,0-9.46-26.15A220.39,220.39,0,0,0,447.73,249.57Z"/><path d="M429.22,239.86c-7.43-2.56-15.3-4.34-22.15-8.37a29.61,29.61,0,1,0,51.41,23.44c-8.21-4.06-16.19-8.77-24.47-12.79Z"/><path class="cls-25" d="M434,242.14l-4.79-2.28c-4.47-1.53-9.07-2.82-13.47-4.44a21.45,21.45,0,1,0,34.81,16.78c0-.49,0-.94,0-1.44C445,247.84,439.56,244.82,434,242.14Z"/><path d="M437,243.64c-1-.5-2-1-3-1.5s-2.33-1.09-3.52-1.63c-.44,0-.88-.15-1.38-.15a11.34,11.34,0,1,0,7.88,3.28Z"/><path class="cls-26" d="M398.76,254.83c16.68,9.95,35.79,12.82,54.42,17.28,6.4,1.53,12.94,3.52,18.28,7.58a31.93,31.93,0,0,1,4.67,4.26,87.6,87.6,0,0,0-8.93-23.87,220.39,220.39,0,0,0-19.47-10.51c-17.28-7.91-35-18.81-54.22-20-.89-.05-1.88-.05-2.82-.14-.89.58-1.79,1.08-2.62,1.68A26,26,0,0,0,377,245.42C384,244.53,394,252,398.76,254.83Z"/><path class="cls-2" d="M426.49,262.84a9.64,9.64,0,1,1-9.61-9.6A9.65,9.65,0,0,1,426.49,262.84Z"/><path class="cls-2" d="M436.89,271.57a5,5,0,1,1-5-5A4.95,4.95,0,0,1,436.89,271.57Z"/><path class="cls-2" d="M726.68,195.55c-1.88-10.65-8.87-19.37-16.75-27.11-6.53-6.43-13.6-12.12-18.91-17.83-16.3-17.82-21.25-37.38-21.7-62.89-.39,24.8,0,49.13,17.93,65.67,11.7,10.9,35.36,20.42,37.3,40.41,2.13,22.64-27.45,27.55-40.87,29.63-20.31,3.21-39.61,6.43-58.73,13.27-8.73,4.75-17.39,9.8-26,14.9-13.66,8.08-27.34,16.9-42,22.54-13.63,5.25-28.45,8.53-42.72,5.69-6.08-1.22-11.82-3-16.92-7-1.74-1.38-3.38-3-5.06-4.6-7.23-3.31-13.8-8.48-20.91-12.18-15.88-8.42-31.79-17.54-48.42-24.08-28-10.85-60-3.26-86.78-17.93-30.65-16.78,6.29-44,20.71-56.25,19.31-16.4,32.34-44.28,26-71.72-.1-.7-1.13.1-1,.6,2.28,19.76-3.07,38.43-14,54.07-7.43,10.71-18.33,18-27.29,26.76-14.72,14.41-30,36.54-8.52,52.58,11.84,8.87,28,10,41.7,11.31,18,1.62,34.62,4.25,51.57,11.68a440.16,440.16,0,0,1,50.56,26.45c5.05,3,10.1,6.34,15.6,8,8.47,3.81,17.77,5.25,26.94,6.15a101.48,101.48,0,0,0,20.16-.31c9.51-.84,19-1.09,28.13-5.65,7.38-3.75,14.36-8.81,21.35-13.55,15.64-10.71,32.38-19.33,50.31-23.39,19.38-4.37,39.24-4.84,58.29-11.2C709.63,225.21,730.19,215,726.68,195.55Z"/><path class="cls-9" d="M693.7,160.23C681.89,149,675.92,133.4,669.1,118.6a89,89,0,0,1-6.52-7.55c.24.63.5,1.33.74,2a1.26,1.26,0,0,0,0,1c.94,3.08,2,6.22,3.08,9.36a1.55,1.55,0,0,1,.14.47,101.66,101.66,0,0,1,1.16,18.27A104.24,104.24,0,0,0,656.55,120c-1.61-2.49-3.24-5-5.13-7.44a43.62,43.62,0,0,0-8-6.06,37.44,37.44,0,0,0-10.2-4.15c3.88,11.48,9.62,22.29,12.95,34.06,2.38,8.68,3.83,22.31.14,31.45-2.24-12.5-3.93-25.58-10.15-36.45a36.8,36.8,0,0,0-6.82-4.64,1.26,1.26,0,0,0-.11.33c-.5,10.48,1.25,20.69-.2,31.24-1.1,8-2.29,16.13-5,23.74a116.74,116.74,0,0,0-6.08-22c-.64-1.7-1.14-3.5-1.74-5.21-2.09-2.77-4-5.54-6-8.31.26.49.5.86.71,1.33,2.59,13.06,2.8,27.25-.78,39.61-3.11-9.21-4.34-18.84-7.89-27.73-2.18-2.68-4.34-5.33-6.61-8a1.24,1.24,0,0,0-.07.47c1.06,16.14-.84,35.52-8.91,49.83a70.21,70.21,0,0,0-1.69-20.7c-2.34-3.82-4.92-7.45-7.42-11.08l0,0c2.07,10.59-2.49,19.72-7.27,28.63-1-7.93-3.68-15.71-3.54-23.75a98.45,98.45,0,0,0-4.87,8.94c-1.8,7.08-3.65,14.16-6.88,20.7-2.89-8.93-4.68-18.3-6.73-27.56l.06-.22c-.62-1.54-1.19-3.13-1.81-4.74-1.33,11.93-3.71,24-5.27,35.72a105.07,105.07,0,0,1-3.2,15.33c-.14.59-2.14,6.77-3.14,4.21A77.67,77.67,0,0,1,531.87,216c-2.63-13.46-3.58-26.81-10.27-39a.49.49,0,0,0-.44-.33,251.09,251.09,0,0,1-2.94,45.68.57.57,0,0,1-.25.43c0,.67-.14,1.32-.25,2-1.44,7.61-5.92-.38-7.42-3.09-1.89-3.42-3.27-7.24-4.87-10.87a81.31,81.31,0,0,1-5.43-18.2,80.43,80.43,0,0,1-3.28-11c-.11.11-.17.17-.17.26-2.58,9-1.69,18.05-1.78,27.22-3.64-12-5.83-24.29-8.17-36.57.15-.38.34-.81.49-1.23a1.6,1.6,0,0,1-.15-.53,64.22,64.22,0,0,0-4.47,6.92c-1.9,6.49-3.59,13-7.92,17.82-.61-8.29,2-16.44,2.29-24.69.11-5.64.3-11.29.3-17-1.19-5.21-2.9-10.22-4-15.44-3.29,6-6.82,11.7-10,17.78S457,169.8,451.69,174.5c.05-6.93,2-13.32,3.72-19.9.36-1.71-1.77-1-2.24-.23a34.15,34.15,0,0,1-8,8.84,73.92,73.92,0,0,0,13.75-27.68c-3,2.23-6.58,3.84-9.35,5.54-3.06,1.69-6,3.46-9,5.26-3.59,2.93-7.12,5.91-10.67,8.78-8,6.72-15.44,14.27-25.06,18a86.56,86.56,0,0,0,5.53-12.68c.41-1.38-.69-2.13-1.73-1.28-3.69,2.88-7.13,5.85-11,8.41,5.18-7,11.25-13.25,16.44-20.32-7.72.4-15.34,1.58-22.32,5.1-5.18,3.66-10.07,8-15,11.93,2-4.58,4.87-8.74,6.11-13.64.21-.9-.58-1.17-1.24-.94a41.58,41.58,0,0,0-10.16,6.48c10.95-15.17,19.43-33.74,20-52.7-.71,2.23-1.5,4.47-2.34,6.61a11.22,11.22,0,0,0-.26,1.92c-.09,0-.09,0-.09.09-.25.38-.51.86-.75,1.29.13-.64.31-1.18.44-1.81a117.62,117.62,0,0,1-18.84,29.9A249.16,249.16,0,0,1,351,163.85c-8,8.46-19.91,23-14.44,36.08,4.08,9.91,18.23,10.86,26.69,11.45,15.7,1.12,30.34.54,45.84,5a254.33,254.33,0,0,1,56.44,24.28c16.57,9.68,31.93,21.82,50.6,26.71,19.21,5.12,36.1-1.7,52.93-11,9.67-5.22,19.48-10.12,29.34-14.85,10.42-5,21.42-9,31-15.38a4.56,4.56,0,0,0,1.69-2.33c25.68-7,56.7-6.25,71.25-32.75C709.05,178.76,702.36,168.63,693.7,160.23Z"/></g></g></svg>